<svg width="5" height="6" viewBox="0 0 5 6" fill="none" xmlns="http://www.w3.org/2000/svg">
<g clip-path="url(#clip0_81_389)">
<path d="M4.78562 3.87679L3.58048 3.34322C3.52588 3.3201 3.4663 3.31081 3.40714 3.31618C3.34799 3.32155 3.29112 3.34141 3.24169 3.37397C3.23668 3.37715 3.2319 3.38068 3.22741 3.38455L2.59754 3.91384C2.591 3.91736 2.58373 3.91933 2.57629 3.91959C2.56885 3.91985 2.56145 3.9184 2.55468 3.91535C2.14982 3.72229 1.73042 3.31045 1.53424 2.91601C1.53097 2.90942 1.52927 2.90218 1.52927 2.89484C1.52927 2.8875 1.53097 2.88026 1.53424 2.87367L2.07176 2.24356C2.07561 2.2389 2.07919 2.23402 2.08247 2.22895C2.11497 2.17992 2.1346 2.12368 2.13959 2.06529C2.14458 2.0069 2.13477 1.9482 2.11104 1.89449L1.5748 0.705865C1.54435 0.6357 1.49168 0.577184 1.42471 0.539101C1.35774 0.501019 1.28007 0.485423 1.20336 0.494655C0.869988 0.537955 0.56398 0.6997 0.34252 0.949664C0.121061 1.19963 -0.00069586 1.52071 2.99178e-06 1.8529C2.99178e-06 3.82638 1.62506 5.43188 3.62257 5.43188C3.9588 5.43251 4.28376 5.3122 4.53676 5.09342C4.78976 4.87463 4.95349 4.57234 4.99736 4.243C5.00669 4.16757 4.99112 4.09118 4.95297 4.0252C4.91482 3.95922 4.85613 3.90716 4.78562 3.87679ZM3.62257 5.12943C1.79394 5.12943 0.306136 3.65953 0.306136 1.8529C0.305283 1.59429 0.399762 1.34422 0.571922 1.14941C0.744081 0.954599 0.982142 0.828379 1.24163 0.794331H1.24749C1.25777 0.794521 1.26776 0.797775 1.27613 0.803667C1.28451 0.809559 1.29089 0.817813 1.29443 0.827349L1.83272 2.01471C1.83579 2.02131 1.83738 2.02849 1.83738 2.03576C1.83738 2.04302 1.83579 2.0502 1.83272 2.0568L1.29418 2.68842C1.29016 2.69292 1.28649 2.69773 1.28321 2.70278C1.24951 2.75361 1.22967 2.81217 1.2256 2.8728C1.22153 2.93342 1.23338 2.99406 1.25999 3.04883C1.48628 3.50654 1.95313 3.96424 2.42151 4.1878C2.47728 4.21395 2.53895 4.22538 2.60052 4.22096C2.66209 4.21654 2.72144 4.19643 2.7728 4.1626C2.77765 4.15932 2.78249 4.15579 2.78709 4.15201L3.4167 3.62273C3.42292 3.61943 3.42978 3.61749 3.43683 3.61706C3.44387 3.61662 3.45093 3.6177 3.45752 3.62021L4.66291 4.15378C4.67276 4.15792 4.68104 4.16502 4.68658 4.17406C4.69212 4.18311 4.69464 4.19365 4.69378 4.20419C4.6595 4.46067 4.53187 4.69604 4.33472 4.86631C4.13758 5.03659 3.88443 5.13012 3.62257 5.12943Z" fill="black"/>
</g>
<defs>
<clipPath id="clip0_81_389">
<rect width="5" height="5" fill="white" transform="translate(0 0.492065)"/>
</clipPath>
</defs>
</svg>
