<svg width="5" height="6" viewBox="0 0 5 6" fill="none" xmlns="http://www.w3.org/2000/svg">
<g clip-path="url(#clip0_81_382)">
<path d="M2.62019 5.41995C2.16377 5.41995 1.71761 5.28461 1.33811 5.03103C0.95861 4.77746 0.662827 4.41705 0.488164 3.99537C0.3135 3.5737 0.2678 3.1097 0.356843 2.66205C0.445885 2.2144 0.665672 1.80321 0.988408 1.48047C1.31114 1.15774 1.72234 0.937951 2.16998 0.848908C2.61763 0.759865 3.08163 0.805565 3.50331 0.980229C3.92498 1.15489 4.2854 1.45068 4.53897 1.83017C4.79254 2.20967 4.92788 2.65584 4.92788 3.11226C4.92788 3.7243 4.68475 4.31127 4.25198 4.74404C3.8192 5.17682 3.23223 5.41995 2.62019 5.41995ZM2.62019 1.13424C2.22898 1.13424 1.84655 1.25025 1.52126 1.46759C1.19598 1.68494 0.942451 1.99387 0.792739 2.3553C0.643027 2.71674 0.603856 3.11445 0.680178 3.49815C0.756501 3.88185 0.944889 4.2343 1.22152 4.51093C1.49815 4.78756 1.8506 4.97595 2.2343 5.05227C2.618 5.12859 3.01571 5.08942 3.37715 4.93971C3.73858 4.79 4.04751 4.53647 4.26486 4.21119C4.4822 3.8859 4.59821 3.50347 4.59821 3.11226C4.59821 2.58765 4.38982 2.08454 4.01887 1.71359C3.64791 1.34263 3.1448 1.13424 2.62019 1.13424Z" fill="black"/>
<path d="M3.21719 3.92957L2.34375 3.05613V1.58582H2.65625V2.92644L3.4375 3.70925L3.21719 3.92957Z" fill="black"/>
</g>
<defs>
<clipPath id="clip0_81_382">
<rect width="5" height="5" fill="white" transform="translate(0 0.492065)"/>
</clipPath>
</defs>
</svg>
