<svg width="10" height="11" viewBox="0 0 10 11" fill="none" xmlns="http://www.w3.org/2000/svg">
<path fill-rule="evenodd" clip-rule="evenodd" d="M1.33062 5.49207C1.33069 4.72229 1.54445 3.96889 1.94625 3.32226C2.34805 2.67563 2.92083 2.16324 3.59585 1.84657C4.27087 1.52991 5.01947 1.42242 5.75181 1.537C6.48414 1.65159 7.16912 1.98338 7.72454 2.49256C8.27996 3.00175 8.68223 3.6667 8.88308 4.40762C9.08393 5.14854 9.07483 5.93397 8.85687 6.66965C8.63891 7.40533 8.22136 8.06002 7.6543 8.55516C7.08725 9.05029 6.39479 9.36484 5.66001 9.46107V6.49207H6.62209C6.74967 6.49207 6.87203 6.43939 6.96224 6.34562C7.05245 6.25185 7.10314 6.12467 7.10314 5.99207C7.10314 5.85946 7.05245 5.73228 6.96224 5.63851C6.87203 5.54474 6.74967 5.49207 6.62209 5.49207H5.66001V4.49207C5.66001 4.35946 5.71069 4.23228 5.8009 4.13851C5.89111 4.04474 6.01347 3.99207 6.14105 3.99207H6.38157C6.50915 3.99207 6.63151 3.93939 6.72172 3.84562C6.81193 3.75185 6.86261 3.62467 6.86261 3.49207C6.86261 3.35946 6.81193 3.23228 6.72172 3.13851C6.63151 3.04474 6.50915 2.99207 6.38157 2.99207H6.14105C5.75831 2.99207 5.39124 3.1501 5.1206 3.43141C4.84996 3.71271 4.69792 4.09424 4.69792 4.49207V5.49207H3.73583C3.60825 5.49207 3.4859 5.54474 3.39568 5.63851C3.30547 5.73228 3.25479 5.85946 3.25479 5.99207C3.25479 6.12467 3.30547 6.25185 3.39568 6.34562C3.4859 6.43939 3.60825 6.49207 3.73583 6.49207H4.69792V9.46107C3.76792 9.33917 2.91268 8.8687 2.2927 8.13794C1.67273 7.40718 1.33063 6.46637 1.33062 5.49207ZM5.17896 10.4921C7.83576 10.4921 9.98939 8.25357 9.98939 5.49207C9.98939 2.73057 7.83576 0.492065 5.17896 0.492065C2.52216 0.492065 0.36853 2.73057 0.36853 5.49207C0.36853 8.25357 2.52216 10.4921 5.17896 10.4921Z" fill="black"/>
</svg>
