<svg width="11" height="11" viewBox="0 0 11 11" fill="none" xmlns="http://www.w3.org/2000/svg">
<path d="M5.36853 3.99207C4.97071 3.99207 4.58917 4.1501 4.30787 4.43141C4.02657 4.71271 3.86853 5.09424 3.86853 5.49207C3.86853 5.88989 4.02657 6.27142 4.30787 6.55273C4.58917 6.83403 4.97071 6.99207 5.36853 6.99207C5.76636 6.99207 6.14789 6.83403 6.42919 6.55273C6.71049 6.27142 6.86853 5.88989 6.86853 5.49207C6.86853 5.09424 6.71049 4.71271 6.42919 4.43141C6.14789 4.1501 5.76636 3.99207 5.36853 3.99207ZM5.36853 2.99207C6.03157 2.99207 6.66746 3.25546 7.1363 3.7243C7.60514 4.19314 7.86853 4.82902 7.86853 5.49207C7.86853 6.15511 7.60514 6.79099 7.1363 7.25983C6.66746 7.72867 6.03157 7.99207 5.36853 7.99207C4.70549 7.99207 4.0696 7.72867 3.60076 7.25983C3.13192 6.79099 2.86853 6.15511 2.86853 5.49207C2.86853 4.82902 3.13192 4.19314 3.60076 3.7243C4.0696 3.25546 4.70549 2.99207 5.36853 2.99207ZM8.61853 2.86707C8.61853 3.03283 8.55268 3.1918 8.43547 3.30901C8.31826 3.42622 8.15929 3.49207 7.99353 3.49207C7.82777 3.49207 7.6688 3.42622 7.55159 3.30901C7.43438 3.1918 7.36853 3.03283 7.36853 2.86707C7.36853 2.70131 7.43438 2.54233 7.55159 2.42512C7.6688 2.30791 7.82777 2.24207 7.99353 2.24207C8.15929 2.24207 8.31826 2.30791 8.43547 2.42512C8.55268 2.54233 8.61853 2.70131 8.61853 2.86707ZM5.36853 1.49207C4.13153 1.49207 3.92953 1.49557 3.35403 1.52107C2.96203 1.53957 2.69903 1.59207 2.45503 1.68707C2.25084 1.76203 2.06624 1.8822 1.91503 2.03857C1.75853 2.18976 1.63821 2.37436 1.56303 2.57857C1.46803 2.82357 1.41553 3.08607 1.39753 3.47757C1.37153 4.02957 1.36803 4.22257 1.36803 5.49207C1.36803 6.72957 1.37153 6.93107 1.39703 7.50657C1.41553 7.89807 1.46803 8.16157 1.56253 8.40507C1.64753 8.62257 1.74753 8.77907 1.91353 8.94507C2.08203 9.11307 2.23853 9.21356 2.45353 9.29657C2.70053 9.39207 2.96353 9.44507 3.35353 9.46307C3.90553 9.48907 4.09853 9.49207 5.36803 9.49207C6.60553 9.49207 6.80703 9.48857 7.38253 9.46307C7.77353 9.44456 8.03653 9.39207 8.28103 9.29757C8.48504 9.22223 8.66956 9.10212 8.82103 8.94607C8.98953 8.77807 9.09003 8.62156 9.17303 8.40606C9.26803 8.16007 9.32103 7.89707 9.33903 7.50607C9.36503 6.95457 9.36803 6.76107 9.36803 5.49207C9.36803 4.25507 9.36453 4.05307 9.33903 3.47757C9.32053 3.08657 9.26753 2.82257 9.17303 2.57857C9.09766 2.37457 8.97755 2.19006 8.82153 2.03857C8.6704 1.88199 8.48579 1.76165 8.28153 1.68657C8.03653 1.59157 7.77353 1.53907 7.38253 1.52107C6.83103 1.49507 6.63853 1.49207 5.36853 1.49207ZM5.36853 0.492065C6.72703 0.492065 6.89653 0.497065 7.43003 0.522065C7.96203 0.547065 8.32503 0.630565 8.64353 0.754565C8.97353 0.881565 9.25153 1.05357 9.52953 1.33107C9.78378 1.58101 9.98051 1.88336 10.106 2.21707C10.2295 2.53557 10.3135 2.89857 10.3385 3.43107C10.362 3.96407 10.3685 4.13357 10.3685 5.49207C10.3685 6.85057 10.3635 7.02007 10.3385 7.55307C10.3135 8.08557 10.2295 8.44806 10.106 8.76707C9.98085 9.10095 9.78408 9.40336 9.52953 9.65307C9.27951 9.90723 8.97719 10.1039 8.64353 10.2296C8.32503 10.3531 7.96203 10.4371 7.43003 10.4621C6.89653 10.4856 6.72703 10.4921 5.36853 10.4921C4.01003 10.4921 3.84053 10.4871 3.30703 10.4621C2.77503 10.4371 2.41253 10.3531 2.09353 10.2296C1.75969 10.1043 1.45729 9.90754 1.20753 9.65307C0.953246 9.40315 0.75651 9.10079 0.63103 8.76707C0.50703 8.44857 0.42353 8.08557 0.39853 7.55307C0.37453 7.02007 0.36853 6.85057 0.36853 5.49207C0.36853 4.13357 0.37353 3.96407 0.39853 3.43107C0.42353 2.89807 0.50703 2.53607 0.63103 2.21707C0.756148 1.88316 0.952932 1.58073 1.20753 1.33107C1.45737 1.07668 1.75974 0.87993 2.09353 0.754565C2.41203 0.630565 2.77453 0.547065 3.30703 0.522065C3.84053 0.498565 4.01003 0.492065 5.36853 0.492065Z" fill="black"/>
</svg>
