<svg width="4" height="5" viewBox="0 0 4 5" fill="none" xmlns="http://www.w3.org/2000/svg">
<path d="M1.71875 2.99207C1.56423 2.99207 1.41319 2.94625 1.28471 2.8604C1.15624 2.77456 1.0561 2.65254 0.996969 2.50979C0.937839 2.36703 0.922367 2.20995 0.952512 2.0584C0.982657 1.90685 1.05706 1.76765 1.16632 1.65839C1.27558 1.54913 1.41479 1.47472 1.56634 1.44458C1.71788 1.41443 1.87497 1.4299 2.01772 1.48903C2.16048 1.54817 2.28249 1.6483 2.36834 1.77678C2.45418 1.90525 2.5 2.0563 2.5 2.21082C2.49975 2.41794 2.41736 2.61651 2.2709 2.76297C2.12444 2.90943 1.92587 2.99182 1.71875 2.99207ZM1.71875 1.74207C1.62604 1.74207 1.53541 1.76956 1.45833 1.82106C1.38124 1.87257 1.32116 1.94578 1.28568 2.03143C1.2502 2.11709 1.24092 2.21134 1.25901 2.30226C1.27709 2.39319 1.32174 2.47672 1.38729 2.54227C1.45285 2.60783 1.53637 2.65247 1.6273 2.67056C1.71823 2.68865 1.81248 2.67936 1.89813 2.64388C1.98379 2.60841 2.057 2.54832 2.1085 2.47124C2.16001 2.39415 2.1875 2.30353 2.1875 2.21082C2.18738 2.08653 2.13795 1.96738 2.05007 1.8795C1.96219 1.79162 1.84303 1.74219 1.71875 1.74207Z" fill="black"/>
<path d="M1.71875 4.86707L0.400627 3.31253C0.382311 3.28919 0.364186 3.2657 0.346252 3.24207C0.121093 2.94547 -0.000543936 2.58319 1.82858e-06 2.21082C1.82858e-06 1.75497 0.181084 1.3178 0.503412 0.995476C0.82574 0.673148 1.26291 0.492065 1.71875 0.492065C2.17459 0.492065 2.61176 0.673148 2.93409 0.995476C3.25642 1.3178 3.4375 1.75497 3.4375 2.21082C3.43805 2.58303 3.31647 2.94514 3.09141 3.2416L3.09125 3.24207C3.09125 3.24207 3.04438 3.30363 3.03735 3.31191L1.71875 4.86707ZM0.595627 3.05378C0.595939 3.05378 0.632189 3.10191 0.640471 3.11222L1.71875 4.38394L2.79844 3.1105C2.80531 3.10191 2.84188 3.05347 2.84203 3.05332C3.02596 2.81099 3.12536 2.51504 3.125 2.21082C3.125 1.83785 2.97684 1.48017 2.71312 1.21645C2.4494 0.952723 2.09171 0.804565 1.71875 0.804565C1.34579 0.804565 0.988106 0.952723 0.724383 1.21645C0.46066 1.48017 0.312502 1.83785 0.312502 2.21082C0.312174 2.51523 0.41153 2.81135 0.595627 3.05378Z" fill="black"/>
</svg>
