<svg width="8" height="11" viewBox="0 0 8 11" fill="none" xmlns="http://www.w3.org/2000/svg">
<path fill-rule="evenodd" clip-rule="evenodd" d="M4.73684 0.492065C4.87643 0.492065 5.0103 0.547516 5.109 0.64622C5.20771 0.744923 5.26316 0.878794 5.26316 1.01838C5.26346 1.5036 5.43119 1.97386 5.73803 2.34974C6.04487 2.72563 6.47203 2.98411 6.94737 3.08154C7.08417 3.10946 7.20427 3.19057 7.28126 3.30704C7.35825 3.42351 7.38581 3.5658 7.35789 3.70259C7.32998 3.83939 7.24886 3.95949 7.13239 4.03648C7.01592 4.11347 6.87364 4.14104 6.73684 4.11312C6.18842 4.00103 5.67975 3.74488 5.26316 3.37101V7.86049C5.26316 8.38096 5.10882 8.88975 4.81966 9.32251C4.5305 9.75527 4.1195 10.0926 3.63864 10.2917C3.15778 10.4909 2.62866 10.543 2.11818 10.4415C1.60771 10.34 1.13881 10.0893 0.770773 9.72129C0.40274 9.35326 0.152106 8.88436 0.0505662 8.37388C-0.0509738 7.86341 0.00114022 7.33428 0.200318 6.85342C0.399496 6.37257 0.736792 5.96157 1.16955 5.67241C1.60231 5.38325 2.1111 5.22891 2.63158 5.22891C2.77117 5.22891 2.90504 5.28436 3.00374 5.38306C3.10244 5.48176 3.1579 5.61564 3.1579 5.75522C3.1579 5.89481 3.10244 6.02868 3.00374 6.12738C2.90504 6.22609 2.77117 6.28154 2.63158 6.28154C2.31929 6.28154 2.01402 6.37414 1.75436 6.54764C1.49471 6.72114 1.29233 6.96773 1.17282 7.25625C1.05332 7.54476 1.02205 7.86224 1.08297 8.16852C1.1439 8.47481 1.29428 8.75615 1.5151 8.97697C1.73592 9.19779 2.01726 9.34817 2.32354 9.40909C2.62983 9.47002 2.9473 9.43875 3.23582 9.31924C3.52433 9.19974 3.77093 8.99736 3.94443 8.7377C4.11792 8.47804 4.21053 8.17277 4.21053 7.86049V1.01838C4.21053 0.878794 4.26598 0.744923 4.36468 0.64622C4.46338 0.547516 4.59726 0.492065 4.73684 0.492065Z" fill="black"/>
</svg>
